<svg width="65" height="55" viewBox="0 0 65 55" fill="none" xmlns="http://www.w3.org/2000/svg">
<g clip-path="url(#clip0)">
<path d="M64.9879 26.9266C65.1946 29.4317 62.7064 32.3595 59.4962 32.3605C56.4159 32.3605 53.8907 29.6648 54.0036 26.9266C54.0784 25.1338 55.2776 23.5029 56.7993 22.7996C59.9246 21.3535 64.7203 23.6728 64.9879 26.9266ZM8.37065 13.8335C18.6528 1.04791 38.3172 -3.29898 44.0269 2.57731C47.0184 5.65517 43.912 9.20931 46.6163 22.0425C48.4876 30.9237 50.626 32.3102 49.7962 36.7968C48.1387 45.7774 37.6554 50.6069 36.2533 51.2526C27.1211 55.4608 11.1292 56.7192 3.50564 46.4124C-4.38818 35.7416 2.7354 20.8423 8.37065 13.8335Z" fill="#FF5831"/>
<path d="M22.6903 19.2689H56.2406V15.8807C56.2406 15.3467 55.8184 14.9108 55.2976 14.9108H50.4349V16.4001C50.4349 16.899 50.0408 17.3039 49.5552 17.3039C49.0696 17.3039 48.6755 16.899 48.6755 16.4001V14.9108H29.573V16.4001C29.573 16.899 29.1789 17.3039 28.6933 17.3039C28.2077 17.3039 27.8136 16.899 27.8136 16.4001V14.9108H23.6343C23.1135 14.9108 22.6903 15.3467 22.6903 15.8807V19.2689ZM22.6903 21.0766V32.0286C22.6903 32.5275 22.2972 32.9324 21.8106 32.9324C21.325 32.9324 20.9309 32.5275 20.9309 32.0286V15.8807C20.9309 14.3489 22.1434 13.1031 23.6343 13.1031H27.8136V11.2643C27.8136 10.7644 28.2077 10.3605 28.6933 10.3605C29.1789 10.3605 29.573 10.7644 29.573 11.2643V13.1031H48.6755V11.2643C48.6755 10.7644 49.0696 10.3605 49.5552 10.3605C50.0408 10.3605 50.4349 10.7644 50.4349 11.2643V13.1031H55.2976C56.7876 13.1031 58 14.3489 58 15.8807V41.3323C58 42.8641 56.7876 44.1099 55.2976 44.1099H33.8999C33.4133 44.1099 33.0202 43.705 33.0202 43.206C33.0202 42.7071 33.4133 42.3022 33.8999 42.3022H55.2976C55.8184 42.3022 56.2406 41.8663 56.2406 41.3323V21.0766H22.6903ZM22.4325 37.8972C19.3049 37.8972 16.7594 40.5115 16.7594 43.726C16.7594 46.9385 19.3049 49.5528 22.4325 49.5528C25.5591 49.5528 28.1047 46.9385 28.1047 43.726C28.1047 40.5115 25.5591 37.8972 22.4325 37.8972ZM22.4325 51.3605C18.3347 51.3605 15 47.9363 15 43.726C15 39.5147 18.3347 36.0895 22.4325 36.0895C26.5303 36.0895 29.864 39.5147 29.864 43.726C29.864 47.9363 26.5303 51.3605 22.4325 51.3605ZM23.1875 45.4636H19.8347C19.3491 45.4636 18.955 45.0587 18.955 44.5598C18.955 44.0609 19.3491 43.656 19.8347 43.656H22.3079V40.6822C22.3079 40.1833 22.7019 39.7783 23.1875 39.7783C23.6731 39.7783 24.0672 40.1833 24.0672 40.6822V44.5598C24.0672 45.0587 23.6731 45.4636 23.1875 45.4636ZM32.1403 26.7335H28.5563C28.0697 26.7335 27.6766 26.3286 27.6766 25.8297C27.6766 25.3307 28.0697 24.9258 28.5563 24.9258H32.1403C32.6259 24.9258 33.02 25.3307 33.02 25.8297C33.02 26.3286 32.6259 26.7335 32.1403 26.7335ZM40.84 26.7335H37.2559C36.7693 26.7335 36.3762 26.3286 36.3762 25.8297C36.3762 25.3307 36.7693 24.9258 37.2559 24.9258H40.84C41.3256 24.9258 41.7197 25.3307 41.7197 25.8297C41.7197 26.3286 41.3256 26.7335 40.84 26.7335ZM50.2208 26.7335H46.6368C46.1502 26.7335 45.7571 26.3286 45.7571 25.8297C45.7571 25.3307 46.1502 24.9258 46.6368 24.9258H50.2208C50.7064 24.9258 51.1005 25.3307 51.1005 25.8297C51.1005 26.3286 50.7064 26.7335 50.2208 26.7335ZM32.1403 31.4422H28.5563C28.0697 31.4422 27.6766 31.0373 27.6766 30.5384C27.6766 30.0395 28.0697 29.6346 28.5563 29.6346H32.1403C32.6259 29.6346 33.02 30.0395 33.02 30.5384C33.02 31.0373 32.6259 31.4422 32.1403 31.4422ZM40.84 31.4422H37.2559C36.7693 31.4422 36.3762 31.0373 36.3762 30.5384C36.3762 30.0395 36.7693 29.6346 37.2559 29.6346H40.84C41.3256 29.6346 41.7197 30.0395 41.7197 30.5384C41.7197 31.0373 41.3256 31.4422 40.84 31.4422ZM50.2208 31.4422H46.6368C46.1502 31.4422 45.7571 31.0373 45.7571 30.5384C45.7571 30.0395 46.1502 29.6346 46.6368 29.6346H50.2208C50.7064 29.6346 51.1005 30.0395 51.1005 30.5384C51.1005 31.0373 50.7064 31.4422 50.2208 31.4422ZM40.84 36.1541H37.2559C36.7693 36.1541 36.3762 35.7492 36.3762 35.2503C36.3762 34.7513 36.7693 34.3464 37.2559 34.3464H40.84C41.3256 34.3464 41.7197 34.7513 41.7197 35.2503C41.7197 35.7492 41.3256 36.1541 40.84 36.1541ZM50.2208 36.1541H46.6368C46.1502 36.1541 45.7571 35.7492 45.7571 35.2503C45.7571 34.7513 46.1502 34.3464 46.6368 34.3464H50.2208C50.7064 34.3464 51.1005 34.7513 51.1005 35.2503C51.1005 35.7492 50.7064 36.1541 50.2208 36.1541Z" fill="black"/>
</g>
<defs>
<clipPath id="clip0">
<rect width="65" height="55" fill="white"/>
</clipPath>
</defs>
</svg>
