<svg width="64" height="68" viewBox="0 0 64 68" fill="none" xmlns="http://www.w3.org/2000/svg">
<g clip-path="url(#clip0)">
<path d="M58.4822 62.0971C58.6879 64.6024 56.1996 67.5305 52.9895 67.5305C49.9091 67.5315 47.384 64.8355 47.4978 62.0971C47.5717 60.303 48.7709 58.674 50.2926 57.9696C53.4178 56.5234 58.2136 58.8429 58.4822 62.0971ZM32.6685 50.586C27.5305 55.674 6.55936 49.5846 1.73348 35.848C-3.99908 19.5305 4.90648 6.53496 22.2455 1.48696C35.9605 -2.50604 51.6925 1.69496 54.8385 12.261C57.1575 20.049 35.9365 23.591 33.4275 39.093C32.4215 45.31 35.0345 48.243 32.6685 50.586Z" fill="#ABD8D4"/>
<path d="M22.4907 62.5305C22.3664 62.5305 22.2412 62.5044 22.1239 62.4501C21.8152 62.3074 21.6168 61.9988 21.6138 61.6581L21.5647 55.2977C21.5606 54.8112 21.9505 54.4152 22.4346 54.4112H22.4416C22.9237 54.4112 23.3146 54.8002 23.3186 55.2836L23.3526 59.7725L29.2849 54.763C29.4433 54.6303 29.6437 54.5569 29.8502 54.5569H42.9184C43.3714 54.5569 43.7402 54.1871 43.7402 53.7317V31.1147C43.7402 30.6593 43.3714 30.2895 42.9184 30.2895H14.0709C13.6169 30.2895 13.2481 30.6593 13.2481 31.1147V53.5378C13.2481 53.9921 13.6169 54.363 14.0709 54.363H18.6511C19.1352 54.363 19.5281 54.756 19.5281 55.2424C19.5281 55.7279 19.1352 56.1219 18.6511 56.1219H14.0709C12.6507 56.1219 11.4941 54.963 11.4941 53.5378V31.1147C11.4941 29.6894 12.6507 28.5305 14.0709 28.5305H42.9184C44.3386 28.5305 45.4941 29.6894 45.4941 31.1147V53.7317C45.4941 55.157 44.3386 56.3159 42.9184 56.3159H30.1699L23.055 62.3235C22.8936 62.4602 22.6932 62.5305 22.4907 62.5305ZM39.6018 38.5305H18.3865C17.8939 38.5305 17.4941 38.0825 17.4941 37.5305C17.4941 36.9785 17.8939 36.5305 18.3865 36.5305H39.6018C40.0944 36.5305 40.4941 36.9785 40.4941 37.5305C40.4941 38.0825 40.0944 38.5305 39.6018 38.5305ZM39.6018 43.5305H18.3865C17.8939 43.5305 17.4941 43.0825 17.4941 42.5305C17.4941 41.9785 17.8939 41.5305 18.3865 41.5305H39.6018C40.0944 41.5305 40.4941 41.9785 40.4941 42.5305C40.4941 43.0825 40.0944 43.5305 39.6018 43.5305ZM33.6215 48.5305H18.3668C17.8851 48.5305 17.4941 48.0825 17.4941 47.5305C17.4941 46.9785 17.8851 46.5305 18.3668 46.5305H33.6215C34.1032 46.5305 34.4941 46.9785 34.4941 47.5305C34.4941 48.0825 34.1032 48.5305 33.6215 48.5305ZM58.0119 54.5305C57.8134 54.5305 57.6159 54.4638 57.4556 54.3324L49.4964 47.8496C49.1184 47.5413 49.06 46.9853 49.3674 46.6052C49.6747 46.2281 50.229 46.1685 50.6079 46.4768L57.1301 51.789V47.1996C57.1301 46.7113 57.5252 46.3151 58.0119 46.3151H60.6936C61.266 46.3151 61.7306 45.8481 61.7306 45.2739V23.3408C61.7306 22.7666 61.266 22.2996 60.6936 22.2996H36.2957C35.7233 22.2996 35.2577 22.7666 35.2577 23.3408V25.3211C35.2577 25.8104 34.8627 26.2056 34.3759 26.2056C33.8892 26.2056 33.4941 25.8104 33.4941 25.3211V23.3408C33.4941 21.7911 34.7508 20.5305 36.2957 20.5305H60.6936C62.2375 20.5305 63.4941 21.7911 63.4941 23.3408V45.2739C63.4941 46.8236 62.2375 48.0841 60.6936 48.0841H58.8937V53.646C58.8937 53.9867 58.6982 54.298 58.3908 54.4446C58.2709 54.5022 58.1409 54.5305 58.0119 54.5305Z" fill="black"/>
</g>
<defs>
<clipPath id="clip0">
<rect width="64" height="68" fill="white"/>
</clipPath>
</defs>
</svg>
