<svg width="69" height="59" viewBox="0 0 69 59" fill="none" xmlns="http://www.w3.org/2000/svg">
<g clip-path="url(#clip0)">
<path d="M64.4104 4.15966C72.6664 11.8487 66.2844 29.0697 63.7564 35.9627C60.3694 45.1927 52.3584 59.7367 45.1564 58.7697C43.8804 58.5977 41.3594 57.7687 36.8134 48.1577C29.2664 32.2037 24.0144 21.6657 29.6534 12.6757C37.3454 0.417663 55.6234 -4.02434 64.4104 4.15966ZM10.9881 46.382C11.1938 48.8872 8.70556 51.8154 5.49541 51.8154C2.41506 51.8163 -0.110125 49.1204 0.00370347 46.382C0.0775918 44.5879 1.27678 42.9589 2.79848 42.2545C5.92376 40.8083 10.7195 43.1278 10.9881 46.382Z" fill="#F8F19F"/>
<path d="M21 13.5416H17.4514C17.0814 13.5416 16.7691 13.956 16.7691 14.4453V18.8153H18.1776C18.6316 18.8153 19 19.2633 19 19.8153C19 20.3673 18.6316 20.8153 18.1776 20.8153H16.7691V27.8153H18.1776C18.6316 27.8153 19 28.2633 19 28.8153C19 29.3673 18.6316 29.8153 18.1776 29.8153H16.7691V37.8153H18.1776C18.6316 37.8153 19 38.2633 19 38.8153C19 39.3673 18.6316 39.8153 18.1776 39.8153H16.7691V43.1844C16.7691 43.6746 17.0814 44.089 17.4514 44.089H21V13.5416ZM23 13.5416V44.089H34.8367C35.325 44.089 35.7213 44.4757 35.7213 44.9521C35.7213 45.4286 35.325 45.8153 34.8367 45.8153H17.4514C16.0999 45.8153 15 44.6355 15 43.1844V39.8153H13.8224C13.3684 39.8153 13 39.3673 13 38.8153C13 38.2633 13.3684 37.8153 13.8224 37.8153H15V29.8153H13.8224C13.3684 29.8153 13 29.3673 13 28.8153C13 28.2633 13.3684 27.8153 13.8224 27.8153H15V20.8153H13.8224C13.3684 20.8153 13 20.3673 13 19.8153C13 19.2633 13.3684 18.8153 13.8224 18.8153H15V14.4453C15 12.9951 16.0999 11.8153 17.4514 11.8153H43.5496C44.9012 11.8153 46 12.9951 46 14.4453V34.4017C46 34.8782 45.6037 35.2649 45.1155 35.2649C44.6272 35.2649 44.2309 34.8782 44.2309 34.4017V14.4453C44.2309 13.956 43.9186 13.5416 43.5496 13.5416H23ZM32.5005 23.6619C31.5887 23.6619 30.8468 24.4036 30.8468 25.3153C30.8468 26.227 31.5887 26.9688 32.5005 26.9688C33.4113 26.9688 34.1532 26.227 34.1532 25.3153C34.1532 24.4036 33.4113 23.6619 32.5005 23.6619ZM32.5005 28.8153C30.5703 28.8153 29 27.2452 29 25.3153C29 23.3854 30.5703 21.8153 32.5005 21.8153C34.4307 21.8153 36 23.3854 36 25.3153C36 27.2452 34.4307 28.8153 32.5005 28.8153ZM37.0904 33.8153C36.5882 33.8153 36.1807 33.4527 36.1807 33.0059C36.1807 31.5877 34.5298 30.4342 32.5005 30.4342C30.4712 30.4342 28.8193 31.5877 28.8193 33.0059C28.8193 33.4527 28.4118 33.8153 27.9096 33.8153C27.4075 33.8153 27 33.4527 27 33.0059C27 30.695 29.468 28.8153 32.5005 28.8153C35.533 28.8153 38 30.695 38 33.0059C38 33.4527 37.5925 33.8153 37.0904 33.8153ZM39.1613 38.6139C38.9811 38.6139 38.8345 38.7588 38.8345 38.9356V49.6951C38.8345 49.8729 38.9811 50.0167 39.1613 50.0167H44.8397C45.0199 50.0167 45.1666 49.8729 45.1666 49.6951V38.9356C45.1666 38.7588 45.0199 38.6139 44.8397 38.6139H39.1613ZM44.8397 51.8153H39.1613C37.9691 51.8153 37 50.8646 37 49.6951V38.9356C37 37.767 37.9691 36.8153 39.1613 36.8153H44.8397C46.032 36.8153 47 37.767 47 38.9356V49.6951C47 50.8646 46.032 51.8153 44.8397 51.8153ZM42.0011 49.8153C41.4498 49.8153 41 49.3673 41 48.8153C41 48.2633 41.4452 47.8153 41.9966 47.8153H42.0011C42.5525 47.8153 43 48.2633 43 48.8153C43 49.3673 42.5525 49.8153 42.0011 49.8153Z" fill="black"/>
</g>
<defs>
<clipPath id="clip0">
<rect width="69" height="59" fill="white"/>
</clipPath>
</defs>
</svg>
