<svg class="hero-blob-2" xmlns="http://www.w3.org/2000/svg" width="661" height="765" viewBox="0 0 661 765">
				<defs>
					<linearGradient id="a" x1="50%" x2="50%" y1="0%" y2="100%">
						<stop offset="0%" stop-color="#FF5831"></stop>
						<stop offset="100%" stop-color="#E64823"></stop>
					</linearGradient>
				</defs>
				<path fill="url(#a)" d="M478.098352,134.560033 C544.113721,187.263559 647.778544,236.786236 658.994747,308.232354 C670.050719,379.518279 633.838405,458.173086 588.492897,526.415342 C543.147389,594.817791 488.668687,652.967883 415.282671,695.258858 C341.896654,737.710027 249.603324,764.30208 178.460548,736.748869 C107.157541,709.35585 56.8448569,627.817568 30.2464317,548.682181 C3.64800652,469.386602 0.76383994,392.654112 0.122914032,302.30521 C-0.678243353,211.796114 0.924071417,107.830799 52.9993014,52.7243759 C105.074531,-2.38204694 207.622677,-8.78977052 295.749989,8.51108316 C383.877301,25.9721299 412.082984,81.8565064 478.098352,134.560033 Z"></path>
			</svg>