<svg xmlns="http://www.w3.org/2000/svg" width="24" height="24" viewBox="0 0 24 24">
  <path fill="#FFFFFF" fill-rule="evenodd" d="M47.2307692,30.5384615 L50.6327292,20.8348596 C51.2684812,19.2672283 51.4799856,18.0138371 51.4799856,16.8992335 C51.4799856,16.4947008 51.4529777,16.1191576 51.4049581,15.7692308 C52.274366,17.3341733 52.7692308,19.1302494 52.7692308,21.0409635 C52.7692308,25.0944541 50.5423393,28.633956 47.2307692,30.5384615 Z M43.7815666,15.8998364 C44.4435673,15.8661683 45.0401507,15.7984521 45.0401507,15.7984521 C45.632722,15.7304985 45.5629502,14.8851388 44.9702321,14.9189494 C44.9702321,14.9189494 43.1888485,15.0545716 42.0389343,15.0545716 C40.9582048,15.0545716 39.1423756,14.9189494 39.1423756,14.9189494 C38.5494129,14.8851388 38.4797878,15.7644041 39.0727995,15.7984521 C39.0727995,15.7984521 39.6337142,15.8661683 40.2261387,15.8998364 L41.9393651,20.4560508 L39.5321389,27.4615385 L35.5278423,15.8998364 C36.1904301,15.8661683 36.7863285,15.7984521 36.7863285,15.7984521 C37.378753,15.7304985 37.3086876,14.8851388 36.7159695,14.9189494 C36.7159695,14.9189494 34.9349774,15.0545716 33.7850632,15.0545716 C33.5788302,15.0545716 33.3354605,15.0494906 33.0769231,15.0415128 C35.0436962,12.1441542 38.4236181,10.2307692 42.2658151,10.2307692 C45.1289557,10.2307692 47.7358585,11.2930961 49.6923077,13.0331543 C49.6451897,13.0301151 49.5987567,13.0244167 49.550073,13.0244167 C48.469637,13.0244167 47.7031743,13.93773 47.7031743,14.9189494 C47.7031743,15.7984521 48.2259738,16.542475 48.7834635,17.4222152 C49.2016052,18.1330923 49.690057,19.0463106 49.690057,20.3656834 C49.690057,21.2797565 49.4108718,22.4291266 48.8532353,23.8165005 L47.7560659,27.3736404 L43.7815666,15.8998364 Z M41.7267836,31.7692308 C40.6457275,31.7692308 39.6020608,31.6135232 38.6153846,31.3297072 L41.9204436,21.9230769 L45.3056715,31.0087883 C45.3279189,31.0615868 45.3552136,31.1104974 45.3846154,31.1571521 C44.2398064,31.5517009 43.0095361,31.7692308 41.7267836,31.7692308 Z M31.2307692,20.7922023 C31.2307692,19.2219082 31.5703206,17.7313045 32.1763153,16.3846154 L37.3846154,30.5384615 C33.7418462,28.7832994 31.2307692,25.0788566 31.2307692,20.7922023 Z M41.999856,9 C35.383248,9 30,14.3829533 30,20.99952 C30,27.6166147 35.383248,33 41.999856,33 C48.616608,33 54,27.6166147 54,20.99952 C54,14.3829533 48.616608,9 41.999856,9 Z" transform="translate(-575.000000, -405.000000) translate(545.000000, 396.000000)"/>
</svg>
