<svg xmlns="http://www.w3.org/2000/svg" width="158" height="14" viewBox="0 0 158 14">
  <g fill="#272c51" fill-rule="evenodd" transform="translate(-1320.000000, -4015.000000) translate(0.000000, 3965.000000) translate(1289.000000, 50.000000) translate(31.000000, 0.000000)">
    <path d="M61.663055 7.0126C61.663055 4.64538261 60.0638693 2.53564348 57.1724693 2.53564348 54.2810693 2.53564348 52.6982479 4.64538261 52.6982479 7.0126L52.6982479 7.3059913C52.6982479 9.6732087 54.2810693 11.8200783 57.1724693 11.8200783 60.0638693 11.8200783 61.663055 9.6732087 61.663055 7.3059913L61.663055 7.0126zM57.1724693 13.7466C53.1581407 13.7466 50.5550907 10.6276435 50.5550907 7.38025217L50.5550907 6.97607826C50.5550907 3.67329565 53.1581407.608513043 57.1724693.608513043 61.2042907.608513043 63.8067764 3.67329565 63.8067764 6.97607826L63.8067764 7.38025217C63.8067764 10.6276435 61.2042907 13.7466 57.1724693 13.7466L57.1724693 13.7466zM6.95764286 3.43474783L4.49115 8.57213913 9.50877857 8.57213913 6.95764286 3.43474783zM11.8392786 13.2700522L10.3427929 10.2424 3.69155714 10.2424 2.24529286 13.2700522 0 13.2700522 6.12362857 1.04926957 7.89266429 1.04926957 14.1184286 13.2700522 11.8392786 13.2700522zM23.7804107 13.7469043C19.7152964 13.7469043 17.8266321 11.3614261 17.8266321 8.18707826L17.8266321 1.04951304 19.9364964 1.04951304 19.9364964 8.2242087C19.9364964 10.4812522 21.3144821 11.8203826 23.9333321 11.8203826 26.6215893 11.8203826 27.727025 10.4812522 27.727025 8.2242087L27.727025 1.04951304 29.8538179 1.04951304 29.8538179 8.18707826C29.8538179 11.2147304 28.0503607 13.7469043 23.7804107 13.7469043"/>
    <polygon points="41.693 2.957 41.693 13.27 39.566 13.27 39.566 2.957 34.617 2.957 34.617 1.049 46.643 1.049 46.643 2.957"/>
    <polygon points="82.757 13.27 82.757 3.599 82.195 4.664 77.449 13.27 76.411 13.27 71.717 4.664 71.155 3.599 71.155 13.27 69.08 13.27 69.08 1.049 72.023 1.049 76.496 9.435 77.024 10.463 77.551 9.435 81.974 1.049 84.883 1.049 84.883 13.27"/>
    <path d="M96.076245,3.43474783 L93.6097521,8.57213913 L98.6273807,8.57213913 L96.076245,3.43474783 Z M100.957881,13.2700522 L99.4608307,10.2424 L92.8101593,10.2424 L91.363895,13.2700522 L89.1186021,13.2700522 L95.2422307,1.04926957 L97.0112664,1.04926957 L103.237031,13.2700522 L100.957881,13.2700522 Z"/>
    <polygon points="111.811 2.957 111.811 13.27 109.684 13.27 109.684 2.957 104.735 2.957 104.735 1.049 116.761 1.049 116.761 2.957"/>
    <polygon points="127.409 2.957 127.409 13.27 125.283 13.27 125.283 2.957 120.333 2.957 120.333 1.049 132.359 1.049 132.359 2.957"/>
    <path d="M137.598645 13.2701739L137.598645 2.20530435C138.449024 2.20530435 138.788724 1.70982609 138.788724 1.0493913L139.691016 1.0493913 139.691016 13.2701739 137.598645 13.2701739zM156.344047 4.49874783C155.323254 3.48953043 153.826769 2.53509565 151.802111 2.53509565 148.774719 2.53509565 147.072833 4.77387826 147.072833 7.10457391L147.072833 7.34318261C147.072833 9.6550087 148.791083 11.8201391 151.955597 11.8201391 153.843697 11.8201391 155.408461 10.8480522 156.395397 9.85709565L157.671247 11.3064C156.429254 12.6272696 154.319954 13.7466609 151.81904 13.7466609 147.532726 13.7466609 144.929676 10.7378783 144.929676 7.43448696L144.929676 7.03092174C144.929676 3.72753043 147.770854.608573913 151.921176.608573913 154.319954.608573913 156.496969 1.69144348 157.671247 3.04944348L156.344047 4.49874783zM58.5727443 4.86073913C58.9564586 5.12673913 59.0636729 5.68186957 58.8148229 6.097L56.8753729 9.33708696C56.6270871 9.75404348 56.1141514 9.87395652 55.7315657 9.60795652 55.3484157 9.34013043 55.2400729 8.78743478 55.4894871 8.37169565L57.4289371 5.131C57.6777871 4.71526087 58.1901586 4.59413043 58.5727443 4.86073913"/>
  </g>
</svg>
