<svg width="2048" height="1313" viewBox="0 0 2048 1313" fill="none" xmlns="http://www.w3.org/2000/svg">
<rect width="2048" height="1313" fill="white"/>
<path d="M1341.5 195C1344.01 216.683 1356.51 225.722 1412 232.5V247.5C1417.37 244.575 1420.32 240.217 1425.5 228.5C1452.5 217.5 1463 179.842 1437.5 166.5C1414.77 154.606 1343 165 1341.5 195Z" fill="#50C1AD"/>
<path d="M405 459.5C401.098 447.76 400.085 441.609 426.5 441C428.5 416 442.5 406 465 436C477 419.5 491.537 428 483 445.5C473 466 423 474.5 405 459.5Z" fill="#F4F5F7"/>
<path d="M488 326.499C488 347.999 506.677 352.458 612 341.999C704.797 373.14 737.301 369.8 771.5 338.499C788 310.499 777.313 290.156 720 310.499C740.5 284.5 748.141 243.233 667 268.499C605.5 210.5 549.476 230.298 570 294.499C517.021 278.524 488 297.676 488 326.499Z" fill="#F4F5F7"/>
<path d="M1183 358.499C1188.24 380.322 1218 388.26 1299 392.5L1309 335.999C1297.33 322.574 1290.67 316.461 1277 328.499C1266.5 313 1242.59 308.798 1228 345.999C1189.74 343.214 1183.09 347.138 1183 358.499Z" fill="#F4F5F7"/>
<path d="M1444 567.5C1437.16 566.034 1436.22 567.346 1433 571.106C1433.19 586.439 1433.98 592.272 1437.5 594.106C1451.05 592.519 1457.86 589.799 1469 582.606C1473.5 580.606 1473.5 575.106 1469 575.106C1452.86 576.668 1446.65 574.644 1444 567.5Z" fill="#6C3495"/>
<path d="M1600.5 399.5L1613.5 411.5L1628.5 428.5L1657.5 406L1600.5 399.5Z" fill="#51C0AD"/>
<path d="M1616.5 409L1644.5 406.5L1624.5 414L1619.5 419L1612 422L1616.5 409Z" fill="#1AB595"/>
<path d="M1549 514C1520.5 498 1499.5 540.5 1555.5 534.5C1577.43 537.93 1588.43 538.242 1607 537.5C1658 534.5 1625.5 486.5 1600.5 506C1575.5 473.5 1546.5 477.5 1549 514Z" fill="#F4F5F7"/>
<path d="M1434 774.5L1447 760.5L1451.5 755L1464 742.5L1406.5 750.5L1434 774.5Z" fill="#FBE440"/>
<path d="M1448 755L1424 753L1443 765L1454.5 768L1448 755Z" fill="#FFD20B"/>
<path d="M1665 1156.5C1653.3 1145.99 1644.34 1142.9 1616.5 1159L1642.5 1177H1667C1674.26 1172.48 1678.08 1169.84 1665 1156.5Z" fill="#18B998"/>
<path d="M1635.5 1160C1607.28 1157.47 1591.09 1159.28 1560.5 1177H1643C1647.18 1167.97 1647.73 1163.51 1635.5 1160Z" fill="#52BFAA"/>
<path d="M1642 671.999C1635.06 691.499 1646.64 702.094 1694.5 686.999C1721.81 695.592 1737.59 696.465 1766.5 691.499C1802 707 1835.5 682 1794.5 661.999C1793 636.5 1775 627.5 1750 649.499C1759 606 1674.5 588.498 1679 659.499C1662.5 649.499 1646 649.499 1642 671.999Z" fill="#F4F5F7"/>
<g filter="url(#filter0_d)">
<path d="M1737.5 713C1778.5 830.5 1623.5 893.5 1599.5 778.5C1596 746 1629 742 1646 769.5C1675.07 802.718 1654 865.5 1607 900.5" stroke="#F0F0F0" stroke-dasharray="4 4"/>
</g>
<path d="M866.753 458.5L875.5 448L887 449.5C889.753 460.792 891.058 468.64 884.901 470L856.671 468.789C852.039 468.494 850.524 467.739 851.126 464.553C853.63 461.438 855.186 459.726 866.753 458.5Z" fill="#051F3A"/>
<path d="M1034.5 458.999L1036.5 447.5L1046.75 439.68C1056.62 445.813 1063.05 450.502 1059.61 455.783L1042 466C1038.49 469.033 1024.8 469.697 1023 467C1022.61 463.022 1034 460 1034.5 458.999Z" fill="#051F3A"/>
<path d="M1070.5 105.5L867 109C858.631 132.966 849 157.5 856 175H1024.5C1024.5 175 1031.5 191 1033 188.5C1034.5 186 1038.5 175 1038.5 175H1055.5C1066.4 151.529 1069.37 136.087 1070.5 105.5Z" fill="#F4F5F7"/>
<path d="M943.5 169C935.094 168.076 932.19 162.783 930.5 145L929 140.5L934 135L960 140.5L958 161.5L963.5 175C956.209 181.658 950.214 184.612 944.5 178L943.5 169Z" fill="#FCC793"/>
<path d="M877 174.91C879.762 182.132 881.241 183.505 887.5 184.5C892.153 185.18 895.125 184.572 898 182.5C894.777 169.316 890 164.91 888.5 167.909C887 170.909 888.5 175.409 888.5 175.409L877 174.91Z" fill="#FFC98C"/>
<path d="M932 131.5C925.5 131.5 924.794 138.096 930.5 145.5C931.317 139.89 932.061 137.728 934 136C939.31 142.365 942.126 146.22 951.5 145.5C958.354 145.229 959.546 147.512 956.5 156.5C956.829 160.948 957.711 162.37 961.5 161.5C969.011 146.157 972.959 137.609 955 127.5C942.665 119.721 936.935 118.662 932 131.5Z" fill="black"/>
<path d="M906.729 209.489L898 182.5C894.69 184.402 891.772 184.977 887.5 184.5C881.048 239.513 887.141 257.802 907.223 255.816C920.07 252.218 922.047 245.021 926 236.925L922 187L906.729 209.489Z" fill="#FFCF13"/>
<path d="M921.5 187.5C921.66 224.718 923.677 245.065 933 272.5C947.161 280.613 970.361 280.215 1000 277C1000 277 991 217.5 993.5 216L1005.5 181.5C989.845 176.735 980.682 175.086 963.5 174.5C956.28 179.929 952.258 183.477 944.5 178C934.882 179.47 929.846 181.559 921.5 187.5Z" fill="#FBE440"/>
<path d="M951 327C951.121 298.631 951.913 288.819 954 277H1000.5L998 361C1013.71 403.637 1026.51 415.435 1048 440.5C1044.15 445.609 1041.93 448.269 1036.5 448.5C995.288 418.928 971.863 403.077 951 327Z" fill="#5A2D8A"/>
<path d="M959.5 252L1087.5 228C1096.1 242.589 1107.3 263.637 1105 276L1020.5 291.5C1020.5 291.5 1019.81 308.94 1018.5 307.5C1017.19 306.06 1006.5 294 1006.5 294L972 298C961.81 284.065 964.228 271.866 959.5 252Z" fill="#F4F5F7"/>
<path d="M1040 288.5C1041 286.5 1039.54 279.989 1046.5 276.5L1059 274C1060.88 281.05 1060.45 287.118 1057 293C1050.56 297.433 1039 290.5 1040 288.5Z" fill="#FBC893"/>
<path d="M1042 210C1024.65 190.073 1011.42 181.017 985 176.5L991.5 217C1004.12 216.564 1018.5 218 1023 222.5L1046 276.5C1051.54 279.118 1054.28 277.741 1059 274C1058.55 254.037 1057.84 242.48 1042 210Z" fill="#FBE441"/>
<path d="M933 272C865.194 336.524 871.372 375.905 875.5 448C879.32 450.493 881.976 450.431 887 449.5C902.889 355.153 918.029 340.397 951 327L954.5 277C943.877 275.994 937.099 275.063 933 272Z" fill="#6C3495"/>
<path d="M1815.5 875H1807.5V891.5H1813C1816.55 896.733 1817.71 900.787 1818 910.5C1775.84 911.116 1740.93 913.052 1746 907L1748.5 894.5C1742.25 895.869 1738.75 896.726 1732.5 894.5C1729.84 887.828 1729.76 884.407 1730.5 878.5C1738.95 875.817 1743.64 875.88 1752 876.5C1753.02 864.653 1754.74 861.207 1758.5 857L1815.5 859.5V875Z" fill="#FBE440"/>
<path d="M1601 1159.5L1631.65 1047.5M1670.5 905.5L1631.65 1047.5M1667.5 1159.5L1674.58 1130M1807 1151.5L1727 911.5L1703.13 1011M1664 914H1794L1874.5 1151.5M1602 1130H1674.58M1674.58 1130L1694.37 1047.5M1617.5 1089L1687 1090M1631.65 1047.5H1694.37M1694.37 1047.5L1703.13 1011M1633 1011H1703.13M1645 974H1715.5M1656 940H1729" stroke="#453194" stroke-width="6" stroke-linecap="round"/>
<path d="M1445.5 304C1440 303.001 1426.5 278.501 1426.5 278.501C1423.13 271.819 1473.5 273.501 1473.5 277.001C1473.5 280.5 1451 304.999 1445.5 304Z" fill="#5B46A1"/>
<path d="M1391.8 575.48C1388.97 569.077 1386.57 567.813 1381.63 567.408C1369.32 576.552 1365.06 580.614 1365.64 584.541C1374.87 594.586 1381.07 598.507 1393.43 603.312C1397.69 605.784 1402.14 602.558 1399.5 598.913C1388.77 586.754 1387.56 581.813 1391.8 575.48Z" fill="#6C3495"/>
<path d="M1431.5 285L1461 279L1441.5 291.5L1439 297L1431.5 298.5V285Z" fill="#442E90"/>
<path d="M1387.5 428C1380.98 427.951 1378.23 428.964 1376.5 434.5L1394.5 437.5C1392.44 438.652 1454.41 441.614 1465.5 441C1476.59 440.386 1470 437.5 1470 437.5L1467 437.5V435.5C1469.64 435.503 1470.89 435.325 1472.5 434.5C1472.5 434.5 1502.5 370 1501 368.5C1499.5 367 1484 366 1480.5 368.5C1477 371 1454 429 1454 429C1426.19 429.057 1412.28 428.606 1387.5 428Z" fill="#5F4BA2"/>
<path d="M1447 429C1442.5 431.5 1432.53 433.236 1418.5 428C1418.86 419.139 1421 416.043 1424.5 414.5C1438.42 416.038 1451.5 426.5 1447 429Z" fill="#FEC88A"/>
<path d="M1436.5 496C1451.37 446.05 1435.66 439.997 1398 438L1386 575.5H1392C1410.18 546.503 1421.14 528.649 1436.5 496Z" fill="#FFCF13"/>
<path d="M1294 466C1288.55 459.732 1287.88 454.542 1291.5 442C1289.67 428.31 1408.5 431 1415.5 445.5C1428.25 456.44 1434.42 484.966 1444 567.5C1439.89 566.377 1437.47 567.45 1433 571.5L1394 499.5L1294 466Z" fill="#FBE440"/>
<path d="M1281 439L1290.5 442C1288.78 434.601 1311.9 433.827 1353.5 432.5C1358.5 432.5 1363 427.5 1363 423L1358.5 341C1352.94 335.856 1349.72 333.333 1342.5 333.5C1333.67 325.871 1292 383 1281 439Z" fill="#50C1AD"/>
<path d="M1418.5 428C1348.73 430.76 1332.22 411.241 1329 352C1326 327 1354 328.5 1361 342.5L1362.5 336.5C1378.85 336.502 1389.06 338.129 1405.5 342C1424.52 324.59 1430.23 317.998 1440 306.5C1440.54 306.707 1440.92 306.927 1442.5 308.5C1443.83 309.715 1443.65 309.736 1442.57 310.454C1445.17 313.11 1448.16 312.362 1453 310C1444.03 332.832 1437.77 344.056 1425 362C1402.61 366.745 1390.67 367.264 1370 366C1379.5 396.5 1368.5 394.5 1425 414.5C1421.15 416.587 1419.41 418.753 1418.5 428Z" fill="#18B998"/>
<path d="M1439.5 296C1438.13 299.061 1439 302 1441 304C1443 306 1442.23 308.13 1442.47 310.39C1445.86 313.596 1448.4 312.448 1453 310C1456.61 302.991 1456.64 299.892 1454 295.5C1447.9 304.584 1444.6 307.155 1439.5 296Z" fill="#FCC58F"/>
<path d="M1360.98 342.473C1355.72 336.425 1352.57 332.808 1343 333L1348.5 308.5L1386.5 288.5C1389.86 315.949 1386.29 325.395 1366.5 325.5L1361 342.5L1360.98 342.473Z" fill="#FDC892"/>
<path d="M1307.5 338C1281.39 366.492 1276.72 378.343 1298.5 387C1319.7 350.846 1329.02 333.37 1343 332.5L1349 313.5C1363.62 311.177 1371.83 307.803 1386.5 287.5L1388 303C1396 295.5 1397.74 285.447 1386.5 280.5C1384 270 1355.19 265.115 1345 285.5C1321 282 1307.84 294.192 1307.5 338Z" fill="black" stroke="black"/>
<path d="M1519.5 1169C1520.5 1166 1520.17 1162.91 1521.5 1160.5L1529 1156.5C1533.33 1159.6 1538.5 1163 1538.5 1168C1538.5 1173 1533.25 1174.34 1523 1178C1506.22 1181.52 1499.97 1182.24 1504 1177.5C1510.73 1172 1518.5 1172 1519.5 1169Z" fill="#51C2B0"/>
<path d="M1656.59 1035.67C1653.43 1035.61 1650.19 1037.05 1647.5 1036.5L1641 1031.5C1642.67 1026.45 1645.21 1019.32 1649.98 1017.83C1654.75 1016.34 1657.59 1020.95 1664.14 1029.65C1672.5 1044.62 1675.05 1050.37 1669.32 1047.93C1662.07 1043.15 1659.75 1035.73 1656.59 1035.67Z" fill="#51C2B0"/>
<path d="M1521.71 1160.5C1471.44 1112.24 1431.43 1087.49 1490.21 1018H1515.21L1521.71 1052C1486.98 1077.04 1500.54 1104.91 1529.21 1156.5C1528.51 1160.76 1527.06 1161.86 1521.71 1160.5Z" fill="#442E90"/>
<path d="M1510 1023L1514.5 1018H1568.5L1561 1029.5L1578 1070C1591 1074.05 1610.95 1055.5 1641 1031.5C1645.01 1031.67 1646.38 1032.82 1647.5 1036.5C1602.3 1116.96 1575.79 1139.54 1522 1052.5L1510 1023Z" fill="#503D97"/>
<path d="M1622 948H1385V1018H1405C1405 1018 1408.5 1037 1410 1037C1411.5 1037 1418.5 1018 1418.5 1018H1622V948Z" fill="#F4F5F7"/>
<path d="M1589.86 990.11C1583.36 994.11 1590.5 983.499 1595 980C1599.5 976.5 1601 979.499 1603 981.499C1605 983.5 1601.75 991.16 1602.86 996.11C1607.36 995.61 1607.86 998.11 1604.36 999.61C1594 1002.73 1589.84 1002.1 1589.86 990.11Z" fill="#FDC892"/>
<path d="M1430.01 946.06C1430.51 941.56 1435.12 934.262 1439.01 935.06C1445.99 938.309 1447.51 947.56 1446.01 950.56C1444.51 953.561 1429.51 950.561 1430.01 946.06Z" fill="#FEC791"/>
<path d="M1488 901C1479.14 898.778 1474.39 897.104 1478 871L1477 865.5L1499 858.5L1510 882.5L1501 893.5C1505.41 900.864 1506.46 904.115 1509 912C1506 917.5 1497 919.5 1491 916C1489.5 911 1488.71 908.128 1488 901Z" fill="#FCC791"/>
<path d="M1446.5 948C1446.02 944.026 1444.94 941.702 1442.5 937.5C1448.99 941.22 1452.14 943.52 1456.21 948H1469C1468.48 919.737 1474.47 913.284 1490 912.5C1491 920 1506.5 918.5 1508.5 910.5C1555.92 909.637 1571.18 913.665 1588 925C1599.76 936.537 1604.01 948.588 1603.5 982C1599.89 978.627 1597.66 977.898 1595 980C1584.38 946.583 1572.58 940.035 1544.5 943L1546.5 948H1469L1456.3 948.098C1456.27 948.066 1456.24 948.033 1456.21 948H1446.5Z" fill="#50C1AD"/>
<path d="M1476 857C1470 860 1471 868 1478 871.5C1479.59 864.364 1480.69 863.552 1483 867C1491.33 865.848 1495.84 865.332 1496 870.5C1497.61 890.035 1498.03 884.395 1504 878.5C1509.97 872.605 1508.46 886.138 1499.5 892.5L1502.5 896C1510 884.722 1513.41 878.258 1510 865C1509.73 856.563 1507.7 853.451 1497.5 853.5C1487.5 842.5 1476.8 839.728 1476 857Z" fill="black"/>
<path d="M470 770.001C461.5 779 474.401 831.964 492.5 869.501C524 869.501 545.911 878.901 576.5 889.5L583.5 803.5C542.179 780.276 485 759.5 470 770.001Z" fill="#18B998"/>
<path d="M574.5 872L561.849 858.5M492.5 784.5L527 821.314M527 821.314C533.116 810.325 532.483 803.185 529.5 790M527 821.314L561.849 858.5M561.849 858.5C543.812 856.496 533.655 857.377 515.5 861" stroke="#55BEAF"/>
<path d="M429.5 894.999C448 952.5 487.591 964.647 524.5 984L576.5 888.5C513 862 439.381 858.874 429.5 894.999Z" fill="#FBE440"/>
<path d="M523 916L498 906.265M450.5 889.5L474 897.794M474 897.794C473.721 892.478 473.996 889.919 468.5 879.5M474 897.794L498 906.265M498 906.265C488.145 910.151 483.639 914.221 477.5 925M532.5 913C532.172 905.311 529.949 893.941 524 884.5" stroke="#F7D619"/>
<path d="M1312.5 1168C1334 1140 1320 1101.5 1267.5 1099L1160 1140L1149 1154L1204.5 1168L1249.5 1172C1286.11 1178.79 1300.04 1177.97 1312.5 1168Z" fill="#FFCF13"/>
<path d="M1164 1154.5C1187.74 1138.41 1206.84 1129.79 1226 1127.9M1298.5 1146.5C1286.84 1140.77 1276.33 1136.28 1266.5 1133.11M1226 1127.9C1238.02 1136.47 1240.84 1142.48 1241.5 1154.5M1226 1127.9C1238.98 1126.62 1252 1128.43 1266.5 1133.11M1266.5 1133.11C1274.21 1126.11 1279.08 1124.31 1288.5 1124" stroke="#FCE036"/>
<path d="M1201 1015.5C1169.76 1042.67 1157.4 1062.32 1147.5 1100.5L1161.5 1139.5L1267 1099C1327.12 1047.7 1314.81 1039.06 1311.5 1015.5H1201Z" fill="#18B998"/>
<path d="M1158.5 1131.5C1166.01 1115.32 1172.75 1101.52 1180.65 1089M1263.5 1017C1257.81 1020.21 1252.48 1023.34 1247.5 1026.42M1180.65 1089C1194.02 1082.45 1201.67 1081.1 1215.5 1081.5M1180.65 1089C1191.9 1071.17 1205.49 1055.95 1227 1040.16M1227 1040.16C1224.14 1031.61 1224.44 1026.58 1230 1017M1227 1040.16C1233.14 1035.65 1239.93 1031.1 1247.5 1026.42M1247.5 1026.42C1257.61 1030.25 1262.44 1033.24 1269.5 1040.16" stroke="#52C2AC"/>
<path d="M1114.5 1066L1149 1154.5L1161.5 1139.5C1148.29 1089.03 1136.51 1079.22 1114.5 1066Z" fill="#18B998"/>
<path d="M796.5 1041C792.817 1056.12 798.814 1066.33 853.5 1094L935.5 1120.5L920.5 1067C876.819 1025.46 850.914 1011.53 796.5 1041Z" fill="#18B998"/>
<path d="M933.5 1118.5C930.694 1115.55 921.49 1108.22 918.862 1105.5M826.5 1051.5C834.792 1053.03 842.22 1054.85 849 1056.99M861.5 1061.59C853.345 1064.37 848.705 1066.35 840 1072.5M861.5 1061.59C857.568 1059.91 853.422 1058.39 849 1056.99M861.5 1061.59C868.842 1064.71 875.436 1068.33 881.674 1072.5M849 1056.99C851.558 1049.22 849.511 1044.98 842.5 1037.5M881.674 1072.5C881.162 1062.08 880.786 1056.9 880 1048.5M881.674 1072.5C885.905 1075.33 889.973 1078.41 894 1081.77M894 1081.77C887.522 1083.48 884.127 1084.04 874.5 1091M894 1081.77C898.658 1085.65 903.261 1089.89 908 1094.53M908 1094.53C908.937 1088.54 909.355 1085.06 905.5 1073.5M908 1094.53C911.52 1097.97 915.114 1101.62 918.862 1105.5M918.862 1105.5C912.227 1105.19 908.855 1106.96 903 1111" stroke="#3EC2AA"/>
<path d="M780.5 1143.5C785.458 1151.36 788.795 1153.82 795.5 1155.5L941.5 1152.5L933.5 1120C879.5 1089 830.896 1071.81 780.5 1143.5Z" fill="#FBE440"/>
<path d="M937.5 1138C932.763 1136.22 928.215 1134.55 923.839 1133M810.5 1132C817.524 1128 824.272 1124.93 831 1122.71M858.5 1118.33C849.387 1123.13 844.846 1126.93 840 1140M858.5 1118.33C848.962 1118.33 839.999 1119.75 831 1122.71M858.5 1118.33C868.338 1118.33 878.788 1119.84 890.521 1122.71M831 1122.71L818 1113.5M890.521 1122.71C888.064 1114.66 885.41 1110.71 878 1103.5M890.521 1122.71C900.55 1125.17 911.516 1128.63 923.839 1133M907.5 1144C911.182 1138.4 913.775 1135.51 923.839 1133" stroke="#FBD218"/>
<path d="M1210 1179H763.5C769.297 1163.2 777.862 1161.19 791.5 1155.5C836.797 1149.59 870.166 1147.46 940.5 1148L1148 1153.5C1197.84 1156.09 1205.47 1164.69 1210 1179Z" fill="#5E4A9F"/>
<path d="M940.5 1148.5L908.5 1016C981.441 1000.55 1022.17 1000.3 1094.5 1017L1149 1154L940.5 1148.5Z" fill="#332876"/>
<path d="M1341 1015.5H739.5H731.5L727 953.999L1309 958.499L1356.5 501.999H658L611.5 891.999L571.5 896.499L620.5 468.499C735.528 469.891 1130.46 468.695 1398.5 463.999C1381.54 679.108 1369.55 814.411 1341 1015.5Z" fill="#5E4A9F"/>
<ellipse cx="1284.5" cy="984" rx="17.5" ry="6" fill="#452F91"/>
<path d="M611.5 891L655.5 500.5L1371 494L1316 961.5L728 954.5L724.5 891H611.5Z" fill="#442E90"/>
<path d="M248 840.5C247.651 848.883 248 848 248 858C254.867 860.999 258.631 861.472 265 857.5C265 854 264.672 850.681 264.5 847C269.733 844.984 270.475 840.88 269.5 824L270.5 819.5L267 805L251.5 807L240 818L239 831L248 840.5Z" fill="#FDC892"/>
<path d="M314.5 770C309.5 769 307 722.5 307 722.5L327.5 726.5C327.5 726.5 319.5 771 314.5 770Z" fill="#5A2D8A"/>
<path d="M276.5 691C278.586 704.74 279.955 712.413 306 722.5C344.182 733.185 394 738 398.5 734C403 730 413.517 713.036 419.5 691C424.18 671.573 422.482 662.523 404 653L403.023 652.67C373.618 642.754 356.832 637.093 306 636.5C283.69 635.692 271.694 636.287 276.5 691Z" fill="#6C3495"/>
<path d="M355.5 1020C348.721 1012.66 347.25 1008.84 347 1006C364.302 1015.93 373.373 1016.87 389 1014.5C387.125 1019.4 383.145 1020.18 375 1023C371 1028 361 1029.5 355.5 1020Z" fill="#592C89"/>
<path d="M348 1008.5C344.5 1007.5 348.949 987.962 351.5 976C368.88 982.423 379.639 984.968 399 985.5C397.5 1015 386 1029.5 348 1008.5Z" fill="#6C3495"/>
<path d="M330.5 906.501C345.606 933.672 350.053 948.399 350.5 974.001C348 980.5 402 990 401 985.501C410.702 940.484 418.256 945.516 434.5 925.001C519.801 817.271 283.5 758.5 330.5 906.501Z" fill="#FFCF13"/>
<path d="M358.826 928.49C367.326 927.99 371.326 920.49 351.326 918.99C353.119 914.238 353.196 912.823 349.826 914.99C344.183 919.844 342.928 922.781 344.826 928.49C349.407 929.575 352.348 929.72 358.826 928.49Z" fill="#FCC896"/>
<ellipse cx="376" cy="974" rx="19" ry="7" transform="rotate(12.2668 376 974)" fill="#F2A43F"/>
<path d="M369.5 966.499C373.728 934.591 374.507 916.203 373 881.999C372.405 868.499 345 874 357.5 885.999C380.12 904.151 392.827 901.314 415.5 892.999C424.5 886.999 410 870.499 402 881.999C387.609 907.451 382.276 925.143 383 969.499" stroke="#F2A83B" stroke-width="2"/>
<path d="M244 1181C219.156 1179.1 205.325 1177.99 217 1159.5L227.5 1161C227.817 1170.22 241.299 1177.24 244.5 1178.5C247.701 1179.76 246 1181.15 244 1181Z" fill="#4EC5AF"/>
<path d="M345.635 1178.71C320.721 1178.47 306.847 1178.28 317.265 1159.05C321.292 1155.44 323.62 1156.37 327.842 1159.85C328.772 1169.03 342.691 1175.14 345.968 1176.18C349.245 1177.22 347.641 1178.73 345.635 1178.71Z" fill="#4EC5AF"/>
<path d="M283.5 971L285.5 947C293.385 947.763 298.048 950.251 304 955C317.092 987.931 321.711 1005.13 331 1042C336 1084 329 1153.5 329 1153.5C328 1160 316 1161.5 313.5 1153.5L297 1053L278.5 1013L283.5 971Z" fill="#442E90"/>
<path d="M214.5 1151C234.114 1085.27 237.5 1045.5 229.5 958.999C235.578 944.821 265.732 939.385 286 947.499C286.842 949.937 287.376 954.05 288.5 968.999L265.5 1076.5L231.5 1157C228 1166 212 1162 214.5 1151Z" fill="#503D97"/>
<path d="M325.5 886.501C312 874.501 305.105 860.645 290.5 861.5C300.94 874.219 295.5 886.501 306 908.501C321.651 914.573 326.693 914.841 336.5 916.001C330.634 906.401 328.078 900.132 325.5 886.501Z" fill="#18B998"/>
<path d="M217 958.5C218.797 963.656 221.359 965.313 230 965L229.5 959C242.5 943.5 284 940.5 304 955C310.5 948.5 312.5 905.5 295.5 865.5C291 858 280.635 856.508 265 855C265.5 861 250 861.5 248 856C238.928 856.803 232.472 857.047 224 861.5C214.084 869.099 211.772 887.05 217 958.5Z" fill="#50C1AD"/>
<path d="M347.5 929.999C344.769 927.769 343.555 926.331 343.5 922.499C326.846 920.956 319.5 921.497 298.5 915.999C277.5 910.5 269.358 894.435 250 866.499C236.282 853.29 216.716 861.432 222.5 881.499C239.478 912.327 277.5 931.997 284 932.999C290.5 934 336.36 934.77 347.5 929.999Z" fill="#18B998"/>
<path d="M269.5 809.5C287.5 799 274 761.5 256 797C224.083 805.142 227.5 824 248 840.5C248.618 838.136 247.924 835.692 247 833C236 828.5 241.5 816 245.5 821C247.741 823.8 249.574 829.323 252 828C250.507 822.193 250.013 818.545 250 811C256.521 808.728 259.064 808.201 262.5 808C266.392 813.614 268.196 816.971 269.5 824C270.681 820.994 270.872 818.248 269.5 809.5Z" fill="#0A1E39"/>
<g filter="url(#filter1_d)">
<path d="M840.5 644.536L666 644.534L662.959 715.461C711.033 718.083 743.569 719.462 782 718.14C782 718.14 779.5 738 783 739C786.5 740 797.5 717.475 797.5 717.475C807.227 716.979 817.46 716.314 828.5 715.461C838.932 690.619 840.759 674.692 840.5 644.536Z" fill="#F4F5F7"/>
</g>
<path d="M751 728.501L749.5 716.001L760 712.501C772.57 709.489 770.863 712.217 766 718.001C766 718.001 776 716.5 778 718.501C780 720.502 754.622 731.746 751 728.501Z" fill="#FFC595"/>
<path d="M703.5 644.5C722 644.5 718 636.5 695 638L697.5 648C704.5 657 712 656 703.5 644.5Z" fill="#FDC592"/>
<g filter="url(#filter2_d)">
<path d="M986.501 709.5C752.5 940.5 1278.5 979.5 1266.5 813C1269.59 793.24 1248.41 765.052 1230.5 769.5C1176 796.5 1202.5 883.5 1313.5 903.5C1357.04 914.198 1379.26 918.89 1405 919" stroke="white" stroke-width="2" stroke-dasharray="4 4"/>
</g>
<path d="M1029.5 668.5C1027 669.5 980.5 687 979.5 689C978.5 691 995.5 693 995.5 693C995.5 693 995 704.499 997 705.5C999 706.5 1006 699 1006 699C1006 699 1020 704 1020 701C1020 698 1032 667.5 1029.5 668.5Z" fill="white"/>
<g filter="url(#filter3_d)">
<path d="M1147 729H918.5C908.217 755.018 906.1 768.297 908 790L941.5 790.933C942.779 800.058 940.5 810.5 942.5 811.5C944.5 812.5 950.703 801.827 953.5 791.267L1141.5 796.5C1133.95 793.418 1131.16 788.223 1147 729Z" fill="#F4F5F7"/>
</g>
<rect x="929" y="760" width="49" height="9" fill="#E8E9EB"/>
<path d="M997 760H1079L1076.5 769H997V760Z" fill="#E8E9EB"/>
<rect x="931" y="745" width="84" height="9" fill="#E8E9EB"/>
<path d="M1025 745H1066.5C1070.92 751.545 1083.09 753.662 1087.5 754H1025V745Z" fill="#E7E8EA"/>
<path d="M1087.5 733L1103.5 739.5L1082 753C1072.84 756.593 1064.34 746.086 1055.5 722.5L1073 720.5L1087.5 733Z" fill="#FFC996"/>
<path d="M1087.5 733.502C1084.14 735.408 1081.85 735.656 1076.5 733.502C1077.66 724.121 1073 719.5 1068.5 724.502C1067.93 725.018 1067.8 725.639 1068 727.502H1065C1065.48 726.287 1065.52 725.722 1065 724.502C1061.47 725.248 1059.47 725.507 1055.5 723.002C1034 708.502 1053.5 692.001 1066 708.502C1081.14 703.03 1085.65 708.946 1087.5 733.502Z" fill="black" stroke="black"/>
<path d="M995 787.001C993.959 788.342 993.776 789.476 994.5 792.501C979.716 791.377 971.777 792.19 973 796.501C974.223 800.812 999.943 812.655 1004.5 803.501C1000.11 784.109 997.577 784.813 995 787.001Z" fill="#FCC791"/>
<path d="M1063 825.499C1079.71 821.293 1084.59 816.742 1092 807.999C1099.89 818.618 1104.04 823.871 1114.5 830.5C1132.19 838.008 1143.98 839.743 1175.5 824C1183.33 823.223 1180.85 808.572 1171 781.999C1179.97 782.182 1188 781 1183.5 774.999C1114 720 1086.39 725.855 1054.5 800.999L1004 796.499C1005.96 801.617 1005.43 804.166 1001 807.999C1026.28 824.965 1039.58 826.192 1063 825.499Z" fill="#50C1AD"/>
<path d="M1128 931C1125.71 929.176 1119.12 901.66 1120.5 873L1164.5 864L1155 919.5L1211 934.5C1208.69 936.89 1207.45 938.788 1211 946.5C1184.7 958.711 1143.42 953.788 1128 931Z" fill="#FFCF13"/>
<path d="M1032 851.5C1024.5 862.391 1032.29 882.205 1076 947C1078.5 944.5 1087.5 943.5 1090 944L1073 874.5C1116.51 871.048 1144 876 1165 863.5C1180.02 847.908 1184.51 838.809 1175.5 824C1150.49 834.195 1136.44 840.168 1114 830C1073.34 838.254 1032.13 842.575 1032 851.5Z" fill="#FBE440"/>
<path d="M1068 954.5C1071.88 950.912 1074.09 948.808 1077.5 946.5C1083.17 942.171 1085.51 942.26 1089.5 944C1092.01 947.575 1092.28 952.76 1090.5 960.5H1056.5C1054.96 958.407 1054.39 955.777 1068 954.5Z" fill="black" stroke="black"/>
<path d="M1221.29 954.368C1217.43 951.421 1215.18 949.747 1212.63 947.081C1207.5 943.5 1208.06 939.498 1209.5 936C1212.85 933.607 1217.7 934.121 1225.4 934.937L1225.64 934.962L1228.1 963.506C1226.13 964.981 1223.55 965.682 1221.29 954.368Z" fill="black" stroke="black"/>
<path d="M702 587C696.546 596.462 693.212 599.408 689 598.5C696 586.5 689 576.5 682 594.5C676.86 596.995 671.907 597.486 666.5 596.5C661 582 665.782 562.645 682.5 563.5C701 558.5 720.5 576 702 587Z" fill="black"/>
<path d="M666.5 596.5L653.5 616L678.5 620.5L681.5 614C693.438 621.714 699 607.5 702 587L689 598.5C697 584 686.5 578 682 594.5L666.5 596.5Z" fill="#FBC891"/>
<path d="M612 729C609.5 799 627 797 589 877.5C588.41 881.002 589.232 881.108 591.5 880C597.371 877.406 600.191 878.082 604.5 882.5C641.29 838.685 648.829 817.676 652 783C641.194 755.254 631.339 744.948 612 729Z" fill="#FFCF13"/>
<path d="M612.5 733.5C603.5 725.5 604.219 708.71 613.719 704.744C626.564 699.381 637.129 700.457 661.219 703.744C692.964 733.522 705.219 779.244 693.719 877.744C687.719 873.744 685.145 874.576 680.219 877.244C670.063 806.485 654.202 778.32 612.5 733.5Z" fill="#FBE440"/>
<path d="M598 708.5C598 714.5 605 714 607 712C616.084 703.48 658.149 697.972 667.5 710.5C681 717 685.199 671.917 691 629.5C677.657 618.886 669.5 612.5 643.5 615.5C611.5 624 579.742 640.204 574 653.5C572.127 659.285 569.672 662.11 603.5 678.5C599.93 687.678 598.897 694.552 598 708.5Z" fill="#442E90"/>
<path d="M694 634.23C690 619.227 663.5 621.727 663 635.23C665.354 709.128 715 728.73 752 728.73C755.925 724.436 756.292 722.024 752 717.73C701 686.23 707.5 672.23 694 634.23Z" fill="#503D97"/>
<path d="M585.5 891.5L519.5 916H662.5L724.5 891.5H585.5Z" fill="#F4F5F7"/>
<path d="M536 1178.5L519.5 916H662.5L724.5 891.5L741.5 1178.5H672.5H536Z" fill="#E8E9EB"/>
<path d="M591.999 894.5C583.361 894.539 580.624 893.172 591.999 880C597.804 876.202 599.772 877.81 602.999 881.5C609 886.5 621.5 892 618.999 894.5C606.324 895.117 600.809 895 591.999 894.5Z" fill="#54BFAD"/>
<path d="M682.54 896.676C673.901 896.715 673.5 894.5 680.5 878C680.5 872.5 695 869.5 693.54 883.676C699.541 888.676 712.041 894.176 709.54 896.676C696.864 897.293 691.35 897.176 682.54 896.676Z" fill="#54BFAD"/>
<path d="M608.5 1104.5L562 1072.5L613 1054.5L650 1085L608.5 1104.5Z" fill="#5E4A9F"/>
<g filter="url(#filter4_d)">
<path d="M565 1180.5L562 1072.5L608.5 1104.5L650 1085C655.215 1118.88 656.11 1140.46 656.5 1180.5H611.5H565Z" fill="#442E90"/>
</g>
<path d="M523 1002.5L494 1027.5L507.5 1178.5L535.5 1176.5L523 1002.5Z" fill="#FFCF13"/>
<path d="M431.5 1178.5V1027L466.5 1002.5H522.5L494.5 1027L507.5 1178.5H431.5Z" fill="#FBE440"/>
<g filter="url(#filter5_d)">
<path d="M1153.5 568.001C1063.12 563.765 1012.86 563.712 924 568.001C914.671 593.038 913.599 609.613 914 631.659C974.804 636.208 1010.57 634.17 1088.5 631.388C1088.5 631.388 1088.5 651 1091.5 651.501C1094.5 652.001 1102.5 631.659 1102.5 631.659L1146 632.501C1150.58 614.428 1152.21 600.321 1153.5 568.001Z" fill="#F4F5F7"/>
</g>
<rect x="940" y="589" width="53" height="9" fill="#E9EAEC"/>
<rect x="1051" y="605" width="27" height="9" fill="#E9EAEC"/>
<rect x="936" y="603" width="96" height="9" fill="#E9EAEC"/>
<rect x="1003" y="589" width="119" height="9" fill="#E9EAEC"/>
<g filter="url(#filter6_d)">
<ellipse cx="1199" cy="569.5" rx="26" ry="26.5" fill="#FEFCFD"/>
</g>
<path d="M1193.5 570.5L1192 578L1202.5 578.5L1202 567.5L1204.5 560L1195 554L1191.5 558.5C1189.24 566.608 1189.62 570.526 1193.5 570.5Z" fill="#FCC896"/>
<path d="M1195 552.001C1189.5 550.5 1190.5 559.503 1191 559.501C1191.5 559.5 1193.87 555.153 1195 555.501C1197.74 556.108 1198.86 557.275 1200.5 560.001C1204 558.5 1205 562 1202.5 564.001C1201.71 566.778 1202.14 567.26 1203 568.001C1207.73 556.855 1212.16 549.497 1195 552.001Z" fill="black"/>
<path d="M1192.5 576.5C1187.21 577.262 1184.75 578.893 1181.5 584.5C1189 592.5 1203.5 592.5 1212 582.5C1209.1 579.238 1206.76 577.726 1202.5 576.5C1198.63 577.817 1197.04 578.994 1192.5 576.5Z" fill="#F9D110"/>
<defs>
<filter id="filter0_d" x="1594.77" y="712.835" width="154.098" height="196.066" filterUnits="userSpaceOnUse" color-interpolation-filters="sRGB">
<feFlood flood-opacity="0" result="BackgroundImageFix"/>
<feColorMatrix in="SourceAlpha" type="matrix" values="0 0 0 0 0 0 0 0 0 0 0 0 0 0 0 0 0 0 127 0"/>
<feOffset dy="4"/>
<feGaussianBlur stdDeviation="2"/>
<feColorMatrix type="matrix" values="0 0 0 0 0 0 0 0 0 0 0 0 0 0 0 0 0 0 0.25 0"/>
<feBlend mode="normal" in2="BackgroundImageFix" result="effect1_dropShadow"/>
<feBlend mode="normal" in="SourceGraphic" in2="effect1_dropShadow" result="shape"/>
</filter>
<filter id="filter1_d" x="658.388" y="639.566" width="186.436" height="125.022" filterUnits="userSpaceOnUse" color-interpolation-filters="sRGB">
<feFlood flood-opacity="0" result="BackgroundImageFix"/>
<feColorMatrix in="SourceAlpha" type="matrix" values="0 0 0 0 0 0 0 0 0 0 0 0 0 0 0 0 0 0 127 0"/>
<feOffset dy="20"/>
<feGaussianBlur stdDeviation="2"/>
<feColorMatrix type="matrix" values="0 0 0 0 0 0 0 0 0 0 0 0 0 0 0 0 0 0 0.25 0"/>
<feBlend mode="normal" in2="BackgroundImageFix" result="effect1_dropShadow"/>
<feBlend mode="normal" in="SourceGraphic" in2="effect1_dropShadow" result="shape"/>
</filter>
<filter id="filter2_d" x="921.44" y="707.789" width="487.564" height="219.212" filterUnits="userSpaceOnUse" color-interpolation-filters="sRGB">
<feFlood flood-opacity="0" result="BackgroundImageFix"/>
<feColorMatrix in="SourceAlpha" type="matrix" values="0 0 0 0 0 0 0 0 0 0 0 0 0 0 0 0 0 0 127 0"/>
<feOffset dy="3"/>
<feGaussianBlur stdDeviation="2"/>
<feColorMatrix type="matrix" values="0 0 0 0 0 0 0 0 0 0 0 0 0 0 0 0 0 0 0.25 0"/>
<feBlend mode="normal" in2="BackgroundImageFix" result="effect1_dropShadow"/>
<feBlend mode="normal" in="SourceGraphic" in2="effect1_dropShadow" result="shape"/>
</filter>
<filter id="filter3_d" x="903.373" y="729" width="247.627" height="96.5652" filterUnits="userSpaceOnUse" color-interpolation-filters="sRGB">
<feFlood flood-opacity="0" result="BackgroundImageFix"/>
<feColorMatrix in="SourceAlpha" type="matrix" values="0 0 0 0 0 0 0 0 0 0 0 0 0 0 0 0 0 0 127 0"/>
<feOffset dy="10"/>
<feGaussianBlur stdDeviation="2"/>
<feColorMatrix type="matrix" values="0 0 0 0 0 0 0 0 0 0 0 0 0 0 0 0 0 0 0.25 0"/>
<feBlend mode="normal" in2="BackgroundImageFix" result="effect1_dropShadow"/>
<feBlend mode="normal" in="SourceGraphic" in2="effect1_dropShadow" result="shape"/>
</filter>
<filter id="filter4_d" x="558" y="1072.5" width="102.5" height="116" filterUnits="userSpaceOnUse" color-interpolation-filters="sRGB">
<feFlood flood-opacity="0" result="BackgroundImageFix"/>
<feColorMatrix in="SourceAlpha" type="matrix" values="0 0 0 0 0 0 0 0 0 0 0 0 0 0 0 0 0 0 127 0"/>
<feOffset dy="4"/>
<feGaussianBlur stdDeviation="2"/>
<feColorMatrix type="matrix" values="0 0 0 0 0 0 0 0 0 0 0 0 0 0 0 0 0 0 0.25 0"/>
<feBlend mode="normal" in2="BackgroundImageFix" result="effect1_dropShadow"/>
<feBlend mode="normal" in="SourceGraphic" in2="effect1_dropShadow" result="shape"/>
</filter>
<filter id="filter5_d" x="909.93" y="564.804" width="247.57" height="100.706" filterUnits="userSpaceOnUse" color-interpolation-filters="sRGB">
<feFlood flood-opacity="0" result="BackgroundImageFix"/>
<feColorMatrix in="SourceAlpha" type="matrix" values="0 0 0 0 0 0 0 0 0 0 0 0 0 0 0 0 0 0 127 0"/>
<feOffset dy="10"/>
<feGaussianBlur stdDeviation="2"/>
<feColorMatrix type="matrix" values="0 0 0 0 0 0 0 0 0 0 0 0 0 0 0 0 0 0 0.25 0"/>
<feBlend mode="normal" in2="BackgroundImageFix" result="effect1_dropShadow"/>
<feBlend mode="normal" in="SourceGraphic" in2="effect1_dropShadow" result="shape"/>
</filter>
<filter id="filter6_d" x="1169" y="543" width="60" height="67" filterUnits="userSpaceOnUse" color-interpolation-filters="sRGB">
<feFlood flood-opacity="0" result="BackgroundImageFix"/>
<feColorMatrix in="SourceAlpha" type="matrix" values="0 0 0 0 0 0 0 0 0 0 0 0 0 0 0 0 0 0 127 0"/>
<feOffset dy="10"/>
<feGaussianBlur stdDeviation="2"/>
<feColorMatrix type="matrix" values="0 0 0 0 0 0 0 0 0 0 0 0 0 0 0 0 0 0 0.25 0"/>
<feBlend mode="normal" in2="BackgroundImageFix" result="effect1_dropShadow"/>
<feBlend mode="normal" in="SourceGraphic" in2="effect1_dropShadow" result="shape"/>
</filter>
</defs>
</svg>
