<svg width="44" height="44" viewBox="0 0 44 44" fill="none" xmlns="http://www.w3.org/2000/svg">
<circle cx="22" cy="22" r="22" fill="#F0F4F9"/>
<path d="M34 22.073C34 15.4058 28.6269 10 22 10C15.3731 10 10 15.4058 10 22.073C10 28.0985 14.3876 33.0934 20.1252 34V25.5637H17.0775V22.073H20.1252V19.4126C20.1252 16.3871 21.9173 14.7148 24.6579 14.7148C25.9707 14.7148 27.3444 14.9508 27.3444 14.9508V17.9219H25.8307C24.3406 17.9219 23.8748 18.8523 23.8748 19.8081V22.073H27.2026L26.6711 25.5637H23.8748V34C29.6124 33.0951 34 28.1002 34 22.073Z" fill="#A6B1BA"/>
</svg>
