<svg width="26" height="26" viewBox="0 0 26 26" fill="none" xmlns="http://www.w3.org/2000/svg">
<path fill-rule="evenodd" clip-rule="evenodd" d="M16.4198 22.1406C16.6773 23.6069 17.3408 24.9334 18.2899 26H5.07812C2.27355 26 0 23.7265 0 20.9219V13.5979C0.445976 13.6723 0.904017 13.7109 1.37109 13.7109C2.23811 13.7109 3.074 13.5776 3.85938 13.3304V20.1094C3.85938 21.2312 4.7688 22.1406 5.89062 22.1406H16.4198Z" fill="#FF5831"/>
<path fill-rule="evenodd" clip-rule="evenodd" d="M5.89062 3.85938C4.7688 3.85938 3.85938 4.7688 3.85938 5.89062V13.3304C3.074 13.5776 2.23811 13.7109 1.37109 13.7109C0.904017 13.7109 0.445976 13.6723 0 13.5979V5.07812C0 2.27355 2.27355 0 5.07812 0H18.5829C18.3538 0.738037 18.2305 1.52258 18.2305 2.33594C18.2305 2.85713 18.2811 3.3665 18.3778 3.85938H5.89062Z" fill="#ABD8D4"/>
<path fill-rule="evenodd" clip-rule="evenodd" d="M18.5829 0H26V20.9219C26 23.7264 23.7265 26 20.9219 26H18.2899C17.3408 24.9334 16.6774 23.6069 16.4198 22.1406H20.1094C21.2312 22.1406 22.1406 21.2312 22.1406 20.1094V3.85938H18.3778C18.2811 3.3665 18.2305 2.85713 18.2305 2.33594C18.2305 1.52258 18.3539 0.738037 18.5829 0Z" fill="#F7EF89"/>
</svg>
