<svg width="44" height="44" viewBox="0 0 44 44" fill="none" xmlns="http://www.w3.org/2000/svg">
<circle cx="22" cy="22" r="22" fill="#F0F4F9"/>
<path d="M30.6484 18.7625C30.7187 18.6875 30.7949 18.675 30.877 18.725C30.959 18.775 31 18.85 31 18.95V26.6C31 27.1 30.8359 27.525 30.5078 27.875C30.1797 28.225 29.7812 28.4 29.3125 28.4H14.6875C14.2188 28.4 13.8203 28.225 13.4922 27.875C13.1641 27.525 13 27.1 13 26.6V18.95C13 18.85 13.041 18.7812 13.123 18.7437C13.2051 18.7062 13.2813 18.7125 13.3516 18.7625L15.3794 20.3644C16.2678 21.0594 17.3966 21.9379 18.7656 23L19.1172 23.3375C19.6797 23.7875 20.125 24.1125 20.4531 24.3125C21.0156 24.6375 21.5312 24.8 22 24.8C22.4167 24.8 22.8704 24.6617 23.3611 24.3852L23.5469 24.275C23.8984 24.075 24.3438 23.75 24.8828 23.3L25.2344 23L27.6034 21.1717C29.0609 20.0406 30.0759 19.2375 30.6484 18.7625ZM22 23.6C21.6953 23.6 21.3203 23.45 20.875 23.15C20.6172 23 20.2539 22.725 19.7852 22.325L19.4336 22.0625L15.9134 19.2993C14.8809 18.4822 14.0972 17.8532 13.5625 17.4125L13.3164 17.225C13.1055 17.05 13 16.8125 13 16.5125V15.8C13 15.3 13.1641 14.875 13.4922 14.525C13.8203 14.175 14.2188 14 14.6875 14H29.3125C29.7812 14 30.1797 14.175 30.5078 14.525C30.8359 14.875 31 15.3 31 15.8V16.5125C31 16.8125 30.8945 17.05 30.6836 17.225L30.5078 17.375C29.5 18.225 27.5195 19.7875 24.5664 22.0625L24.2148 22.325C23.7461 22.725 23.3828 23 23.125 23.15C22.6797 23.45 22.3047 23.6 22 23.6Z" fill="#A6B1BA"/>
</svg>
