<svg width="44" height="44" viewBox="0 0 44 44" fill="none" xmlns="http://www.w3.org/2000/svg">
<circle cx="22" cy="22" r="22" fill="#F0F4F9"/>
<path d="M17.5477 31.1904C26.6048 31.1904 31.5577 23.4967 31.5577 16.8249C31.5577 16.6063 31.5534 16.3888 31.5438 16.1723C32.5053 15.4596 33.3409 14.5702 34 13.5578C33.1177 13.9599 32.1683 14.2306 31.1723 14.3527C32.1889 13.7276 32.9694 12.7388 33.3376 11.5601C32.3862 12.1384 31.3327 12.5587 30.2109 12.7856C29.3123 11.8042 28.0331 11.1904 26.6166 11.1904C23.8974 11.1904 21.6924 13.4515 21.6924 16.2387C21.6924 16.6349 21.7356 17.0203 21.82 17.3899C17.7276 17.1788 14.0987 15.1697 11.6701 12.1147C11.2472 12.8609 11.0034 13.7276 11.0034 14.6524C11.0034 16.4041 11.8727 17.9505 13.1946 18.8551C12.3868 18.8295 11.6279 18.6022 10.9646 18.2237C10.9639 18.2449 10.9639 18.2655 10.9639 18.2881C10.9639 20.7333 12.6611 22.7749 14.9142 23.2375C14.5005 23.3531 14.0651 23.4152 13.6158 23.4152C13.299 23.4152 12.9904 23.3832 12.6904 23.3241C13.3173 25.3302 15.135 26.79 17.2902 26.8308C15.6049 28.1853 13.4819 28.992 11.1745 28.992C10.7776 28.992 10.3854 28.9689 10 28.9221C12.1792 30.3544 14.7668 31.1901 17.548 31.1901" fill="#A6B1BA"/>
</svg>
